<svg xmlns="http://www.w3.org/2000/svg" version="1.1" xmlns:xlink="http://www.w3.org/1999/xlink" xmlns:svgjs="http://svgjs.com/svgjs" width="1280" height="900" preserveAspectRatio="none" viewBox="0 0 1280 900"><g mask="url(&quot;#SvgjsMask1046&quot;)" fill="none"><path d="M133.07 195.29L198.02 232.79L198.02 307.79L133.07 345.29L68.11 307.79L68.11 232.79zM198.02 307.79L262.98 345.29L262.98 420.29L198.02 457.79L133.07 420.29L133.07 345.29zM133.07 645.29L198.02 682.79L198.02 757.79L133.07 795.29L68.11 757.79L68.11 682.79zM262.98 -29.71L327.93 7.79L327.93 82.79L262.98 120.29L198.02 82.79L198.02 7.79zM327.93 82.79L392.88 120.29L392.88 195.29L327.93 232.79L262.98 195.29L262.98 120.29zM327.93 532.79L392.88 570.29L392.88 645.29L327.93 682.79L262.98 645.29L262.98 570.29zM262.98 645.29L327.93 682.79L327.93 757.79L262.98 795.29L198.02 757.79L198.02 682.79zM327.93 757.79L392.88 795.29L392.88 870.29L327.93 907.79L262.98 870.29L262.98 795.29zM392.88 -29.71L457.84 7.79L457.84 82.79L392.88 120.29L327.93 82.79L327.93 7.79zM457.84 82.79L522.79 120.29L522.79 195.29L457.84 232.79L392.88 195.29L392.88 120.29zM392.88 195.29L457.84 232.79L457.84 307.79L392.88 345.29L327.93 307.79L327.93 232.79zM392.88 420.29L457.84 457.79L457.84 532.79L392.88 570.29L327.93 532.79L327.93 457.79zM457.84 532.79L522.79 570.29L522.79 645.29L457.84 682.79L392.88 645.29L392.88 570.29zM457.84 757.79L522.79 795.29L522.79 870.29L457.84 907.79L392.88 870.29L392.88 795.29zM392.88 870.29L457.84 907.79L457.84 982.79L392.88 1020.29L327.93 982.79L327.93 907.79zM522.79 -29.71L587.74 7.79L587.74 82.79L522.79 120.29L457.84 82.79L457.84 7.79zM587.74 82.79L652.7 120.29L652.7 195.29L587.74 232.79L522.79 195.29L522.79 120.29zM587.74 307.79L652.7 345.29L652.7 420.29L587.74 457.79L522.79 420.29L522.79 345.29zM522.79 420.29L587.74 457.79L587.74 532.79L522.79 570.29L457.84 532.79L457.84 457.79zM587.74 757.79L652.7 795.29L652.7 870.29L587.74 907.79L522.79 870.29L522.79 795.29zM522.79 870.29L587.74 907.79L587.74 982.79L522.79 1020.29L457.84 982.79L457.84 907.79zM652.7 645.29L717.65 682.79L717.65 757.79L652.7 795.29L587.74 757.79L587.74 682.79zM717.65 757.79L782.61 795.29L782.61 870.29L717.65 907.79L652.7 870.29L652.7 795.29zM652.7 870.29L717.65 907.79L717.65 982.79L652.7 1020.29L587.74 982.79L587.74 907.79zM847.56 82.79L912.51 120.29L912.51 195.29L847.56 232.79L782.6 195.29L782.6 120.29zM782.6 195.29L847.56 232.79L847.56 307.79L782.6 345.29L717.65 307.79L717.65 232.79zM847.56 532.79L912.51 570.29L912.51 645.29L847.56 682.79L782.6 645.29L782.6 570.29zM782.6 645.29L847.56 682.79L847.56 757.79L782.6 795.29L717.65 757.79L717.65 682.79zM847.56 757.79L912.51 795.29L912.51 870.29L847.56 907.79L782.6 870.29L782.6 795.29zM782.6 870.29L847.56 907.79L847.56 982.79L782.6 1020.29L717.65 982.79L717.65 907.79zM912.51 195.29L977.47 232.79L977.47 307.79L912.51 345.29L847.56 307.79L847.56 232.79zM977.47 307.79L1042.42 345.29L1042.42 420.29L977.47 457.79L912.51 420.29L912.51 345.29zM912.51 420.29L977.47 457.79L977.47 532.79L912.51 570.29L847.56 532.79L847.56 457.79zM912.51 645.29L977.47 682.79L977.47 757.79L912.51 795.29L847.56 757.79L847.56 682.79zM912.51 870.29L977.47 907.79L977.47 982.79L912.51 1020.29L847.56 982.79L847.56 907.79zM1042.42 -29.71L1107.37 7.79L1107.37 82.79L1042.42 120.29L977.47 82.79L977.47 7.79zM1107.37 307.79L1172.33 345.29L1172.33 420.29L1107.37 457.79L1042.42 420.29L1042.42 345.29zM1107.37 532.79L1172.33 570.29L1172.33 645.29L1107.37 682.79L1042.42 645.29L1042.42 570.29zM1042.42 645.29L1107.37 682.79L1107.37 757.79L1042.42 795.29L977.47 757.79L977.47 682.79zM1237.28 82.79L1302.23 120.29L1302.23 195.29L1237.28 232.79L1172.33 195.29L1172.33 120.29zM1172.33 195.29L1237.28 232.79L1237.28 307.79L1172.33 345.29L1107.37 307.79L1107.37 232.79zM1172.33 645.29L1237.28 682.79L1237.28 757.79L1172.33 795.29L1107.37 757.79L1107.37 682.79zM1237.28 757.79L1302.23 795.29L1302.23 870.29L1237.28 907.79L1172.33 870.29L1172.33 795.29zM1172.33 870.29L1237.28 907.79L1237.28 982.79L1172.33 1020.29L1107.37 982.79L1107.37 907.79z" stroke="#03305d" stroke-width="2"></path><path d="M125.57 195.29 a7.5 7.5 0 1 0 15 0 a7.5 7.5 0 1 0 -15 0zM190.52 232.79 a7.5 7.5 0 1 0 15 0 a7.5 7.5 0 1 0 -15 0zM190.52 307.79 a7.5 7.5 0 1 0 15 0 a7.5 7.5 0 1 0 -15 0zM125.57 345.29 a7.5 7.5 0 1 0 15 0 a7.5 7.5 0 1 0 -15 0zM60.61 307.79 a7.5 7.5 0 1 0 15 0 a7.5 7.5 0 1 0 -15 0zM60.61 232.79 a7.5 7.5 0 1 0 15 0 a7.5 7.5 0 1 0 -15 0zM255.48 345.29 a7.5 7.5 0 1 0 15 0 a7.5 7.5 0 1 0 -15 0zM255.48 420.29 a7.5 7.5 0 1 0 15 0 a7.5 7.5 0 1 0 -15 0zM190.52 457.79 a7.5 7.5 0 1 0 15 0 a7.5 7.5 0 1 0 -15 0zM125.57 420.29 a7.5 7.5 0 1 0 15 0 a7.5 7.5 0 1 0 -15 0zM125.57 645.29 a7.5 7.5 0 1 0 15 0 a7.5 7.5 0 1 0 -15 0zM190.52 682.79 a7.5 7.5 0 1 0 15 0 a7.5 7.5 0 1 0 -15 0zM190.52 757.79 a7.5 7.5 0 1 0 15 0 a7.5 7.5 0 1 0 -15 0zM125.57 795.29 a7.5 7.5 0 1 0 15 0 a7.5 7.5 0 1 0 -15 0zM60.61 757.79 a7.5 7.5 0 1 0 15 0 a7.5 7.5 0 1 0 -15 0zM60.61 682.79 a7.5 7.5 0 1 0 15 0 a7.5 7.5 0 1 0 -15 0zM255.48 -29.71 a7.5 7.5 0 1 0 15 0 a7.5 7.5 0 1 0 -15 0zM320.43 7.79 a7.5 7.5 0 1 0 15 0 a7.5 7.5 0 1 0 -15 0zM320.43 82.79 a7.5 7.5 0 1 0 15 0 a7.5 7.5 0 1 0 -15 0zM255.48 120.29 a7.5 7.5 0 1 0 15 0 a7.5 7.5 0 1 0 -15 0zM190.52 82.79 a7.5 7.5 0 1 0 15 0 a7.5 7.5 0 1 0 -15 0zM190.52 7.79 a7.5 7.5 0 1 0 15 0 a7.5 7.5 0 1 0 -15 0zM385.38 120.29 a7.5 7.5 0 1 0 15 0 a7.5 7.5 0 1 0 -15 0zM385.38 195.29 a7.5 7.5 0 1 0 15 0 a7.5 7.5 0 1 0 -15 0zM320.43 232.79 a7.5 7.5 0 1 0 15 0 a7.5 7.5 0 1 0 -15 0zM255.48 195.29 a7.5 7.5 0 1 0 15 0 a7.5 7.5 0 1 0 -15 0zM320.43 532.79 a7.5 7.5 0 1 0 15 0 a7.5 7.5 0 1 0 -15 0zM385.38 570.29 a7.5 7.5 0 1 0 15 0 a7.5 7.5 0 1 0 -15 0zM385.38 645.29 a7.5 7.5 0 1 0 15 0 a7.5 7.5 0 1 0 -15 0zM320.43 682.79 a7.5 7.5 0 1 0 15 0 a7.5 7.5 0 1 0 -15 0zM255.48 645.29 a7.5 7.5 0 1 0 15 0 a7.5 7.5 0 1 0 -15 0zM255.48 570.29 a7.5 7.5 0 1 0 15 0 a7.5 7.5 0 1 0 -15 0zM320.43 757.79 a7.5 7.5 0 1 0 15 0 a7.5 7.5 0 1 0 -15 0zM255.48 795.29 a7.5 7.5 0 1 0 15 0 a7.5 7.5 0 1 0 -15 0zM385.38 795.29 a7.5 7.5 0 1 0 15 0 a7.5 7.5 0 1 0 -15 0zM385.38 870.29 a7.5 7.5 0 1 0 15 0 a7.5 7.5 0 1 0 -15 0zM320.43 907.79 a7.5 7.5 0 1 0 15 0 a7.5 7.5 0 1 0 -15 0zM255.48 870.29 a7.5 7.5 0 1 0 15 0 a7.5 7.5 0 1 0 -15 0zM385.38 -29.71 a7.5 7.5 0 1 0 15 0 a7.5 7.5 0 1 0 -15 0zM450.34 7.79 a7.5 7.5 0 1 0 15 0 a7.5 7.5 0 1 0 -15 0zM450.34 82.79 a7.5 7.5 0 1 0 15 0 a7.5 7.5 0 1 0 -15 0zM515.29 120.29 a7.5 7.5 0 1 0 15 0 a7.5 7.5 0 1 0 -15 0zM515.29 195.29 a7.5 7.5 0 1 0 15 0 a7.5 7.5 0 1 0 -15 0zM450.34 232.79 a7.5 7.5 0 1 0 15 0 a7.5 7.5 0 1 0 -15 0zM450.34 307.79 a7.5 7.5 0 1 0 15 0 a7.5 7.5 0 1 0 -15 0zM385.38 345.29 a7.5 7.5 0 1 0 15 0 a7.5 7.5 0 1 0 -15 0zM320.43 307.79 a7.5 7.5 0 1 0 15 0 a7.5 7.5 0 1 0 -15 0zM385.38 420.29 a7.5 7.5 0 1 0 15 0 a7.5 7.5 0 1 0 -15 0zM450.34 457.79 a7.5 7.5 0 1 0 15 0 a7.5 7.5 0 1 0 -15 0zM450.34 532.79 a7.5 7.5 0 1 0 15 0 a7.5 7.5 0 1 0 -15 0zM320.43 457.79 a7.5 7.5 0 1 0 15 0 a7.5 7.5 0 1 0 -15 0zM515.29 570.29 a7.5 7.5 0 1 0 15 0 a7.5 7.5 0 1 0 -15 0zM515.29 645.29 a7.5 7.5 0 1 0 15 0 a7.5 7.5 0 1 0 -15 0zM450.34 682.79 a7.5 7.5 0 1 0 15 0 a7.5 7.5 0 1 0 -15 0zM450.34 757.79 a7.5 7.5 0 1 0 15 0 a7.5 7.5 0 1 0 -15 0zM515.29 795.29 a7.5 7.5 0 1 0 15 0 a7.5 7.5 0 1 0 -15 0zM515.29 870.29 a7.5 7.5 0 1 0 15 0 a7.5 7.5 0 1 0 -15 0zM450.34 907.79 a7.5 7.5 0 1 0 15 0 a7.5 7.5 0 1 0 -15 0zM450.34 982.79 a7.5 7.5 0 1 0 15 0 a7.5 7.5 0 1 0 -15 0zM385.38 1020.29 a7.5 7.5 0 1 0 15 0 a7.5 7.5 0 1 0 -15 0zM320.43 982.79 a7.5 7.5 0 1 0 15 0 a7.5 7.5 0 1 0 -15 0zM515.29 -29.71 a7.5 7.5 0 1 0 15 0 a7.5 7.5 0 1 0 -15 0zM580.24 7.79 a7.5 7.5 0 1 0 15 0 a7.5 7.5 0 1 0 -15 0zM580.24 82.79 a7.5 7.5 0 1 0 15 0 a7.5 7.5 0 1 0 -15 0zM645.2 120.29 a7.5 7.5 0 1 0 15 0 a7.5 7.5 0 1 0 -15 0zM645.2 195.29 a7.5 7.5 0 1 0 15 0 a7.5 7.5 0 1 0 -15 0zM580.24 232.79 a7.5 7.5 0 1 0 15 0 a7.5 7.5 0 1 0 -15 0zM580.24 307.79 a7.5 7.5 0 1 0 15 0 a7.5 7.5 0 1 0 -15 0zM645.2 345.29 a7.5 7.5 0 1 0 15 0 a7.5 7.5 0 1 0 -15 0zM645.2 420.29 a7.5 7.5 0 1 0 15 0 a7.5 7.5 0 1 0 -15 0zM580.24 457.79 a7.5 7.5 0 1 0 15 0 a7.5 7.5 0 1 0 -15 0zM515.29 420.29 a7.5 7.5 0 1 0 15 0 a7.5 7.5 0 1 0 -15 0zM515.29 345.29 a7.5 7.5 0 1 0 15 0 a7.5 7.5 0 1 0 -15 0zM580.24 532.79 a7.5 7.5 0 1 0 15 0 a7.5 7.5 0 1 0 -15 0zM580.24 757.79 a7.5 7.5 0 1 0 15 0 a7.5 7.5 0 1 0 -15 0zM645.2 795.29 a7.5 7.5 0 1 0 15 0 a7.5 7.5 0 1 0 -15 0zM645.2 870.29 a7.5 7.5 0 1 0 15 0 a7.5 7.5 0 1 0 -15 0zM580.24 907.79 a7.5 7.5 0 1 0 15 0 a7.5 7.5 0 1 0 -15 0zM580.24 982.79 a7.5 7.5 0 1 0 15 0 a7.5 7.5 0 1 0 -15 0zM515.29 1020.29 a7.5 7.5 0 1 0 15 0 a7.5 7.5 0 1 0 -15 0zM645.2 645.29 a7.5 7.5 0 1 0 15 0 a7.5 7.5 0 1 0 -15 0zM710.15 682.79 a7.5 7.5 0 1 0 15 0 a7.5 7.5 0 1 0 -15 0zM710.15 757.79 a7.5 7.5 0 1 0 15 0 a7.5 7.5 0 1 0 -15 0zM580.24 682.79 a7.5 7.5 0 1 0 15 0 a7.5 7.5 0 1 0 -15 0zM775.11 795.29 a7.5 7.5 0 1 0 15 0 a7.5 7.5 0 1 0 -15 0zM775.11 870.29 a7.5 7.5 0 1 0 15 0 a7.5 7.5 0 1 0 -15 0zM710.15 907.79 a7.5 7.5 0 1 0 15 0 a7.5 7.5 0 1 0 -15 0zM710.15 982.79 a7.5 7.5 0 1 0 15 0 a7.5 7.5 0 1 0 -15 0zM645.2 1020.29 a7.5 7.5 0 1 0 15 0 a7.5 7.5 0 1 0 -15 0zM840.06 82.79 a7.5 7.5 0 1 0 15 0 a7.5 7.5 0 1 0 -15 0zM905.01 120.29 a7.5 7.5 0 1 0 15 0 a7.5 7.5 0 1 0 -15 0zM905.01 195.29 a7.5 7.5 0 1 0 15 0 a7.5 7.5 0 1 0 -15 0zM840.06 232.79 a7.5 7.5 0 1 0 15 0 a7.5 7.5 0 1 0 -15 0zM775.1 195.29 a7.5 7.5 0 1 0 15 0 a7.5 7.5 0 1 0 -15 0zM775.1 120.29 a7.5 7.5 0 1 0 15 0 a7.5 7.5 0 1 0 -15 0zM840.06 307.79 a7.5 7.5 0 1 0 15 0 a7.5 7.5 0 1 0 -15 0zM775.1 345.29 a7.5 7.5 0 1 0 15 0 a7.5 7.5 0 1 0 -15 0zM710.15 307.79 a7.5 7.5 0 1 0 15 0 a7.5 7.5 0 1 0 -15 0zM710.15 232.79 a7.5 7.5 0 1 0 15 0 a7.5 7.5 0 1 0 -15 0zM840.06 532.79 a7.5 7.5 0 1 0 15 0 a7.5 7.5 0 1 0 -15 0zM905.01 570.29 a7.5 7.5 0 1 0 15 0 a7.5 7.5 0 1 0 -15 0zM905.01 645.29 a7.5 7.5 0 1 0 15 0 a7.5 7.5 0 1 0 -15 0zM840.06 682.79 a7.5 7.5 0 1 0 15 0 a7.5 7.5 0 1 0 -15 0zM775.1 645.29 a7.5 7.5 0 1 0 15 0 a7.5 7.5 0 1 0 -15 0zM775.1 570.29 a7.5 7.5 0 1 0 15 0 a7.5 7.5 0 1 0 -15 0zM840.06 757.79 a7.5 7.5 0 1 0 15 0 a7.5 7.5 0 1 0 -15 0zM775.1 795.29 a7.5 7.5 0 1 0 15 0 a7.5 7.5 0 1 0 -15 0zM905.01 795.29 a7.5 7.5 0 1 0 15 0 a7.5 7.5 0 1 0 -15 0zM905.01 870.29 a7.5 7.5 0 1 0 15 0 a7.5 7.5 0 1 0 -15 0zM840.06 907.79 a7.5 7.5 0 1 0 15 0 a7.5 7.5 0 1 0 -15 0zM775.1 870.29 a7.5 7.5 0 1 0 15 0 a7.5 7.5 0 1 0 -15 0zM840.06 982.79 a7.5 7.5 0 1 0 15 0 a7.5 7.5 0 1 0 -15 0zM775.1 1020.29 a7.5 7.5 0 1 0 15 0 a7.5 7.5 0 1 0 -15 0zM969.97 232.79 a7.5 7.5 0 1 0 15 0 a7.5 7.5 0 1 0 -15 0zM969.97 307.79 a7.5 7.5 0 1 0 15 0 a7.5 7.5 0 1 0 -15 0zM905.01 345.29 a7.5 7.5 0 1 0 15 0 a7.5 7.5 0 1 0 -15 0zM1034.92 345.29 a7.5 7.5 0 1 0 15 0 a7.5 7.5 0 1 0 -15 0zM1034.92 420.29 a7.5 7.5 0 1 0 15 0 a7.5 7.5 0 1 0 -15 0zM969.97 457.79 a7.5 7.5 0 1 0 15 0 a7.5 7.5 0 1 0 -15 0zM905.01 420.29 a7.5 7.5 0 1 0 15 0 a7.5 7.5 0 1 0 -15 0zM969.97 532.79 a7.5 7.5 0 1 0 15 0 a7.5 7.5 0 1 0 -15 0zM840.06 457.79 a7.5 7.5 0 1 0 15 0 a7.5 7.5 0 1 0 -15 0zM969.97 682.79 a7.5 7.5 0 1 0 15 0 a7.5 7.5 0 1 0 -15 0zM969.97 757.79 a7.5 7.5 0 1 0 15 0 a7.5 7.5 0 1 0 -15 0zM969.97 907.79 a7.5 7.5 0 1 0 15 0 a7.5 7.5 0 1 0 -15 0zM969.97 982.79 a7.5 7.5 0 1 0 15 0 a7.5 7.5 0 1 0 -15 0zM905.01 1020.29 a7.5 7.5 0 1 0 15 0 a7.5 7.5 0 1 0 -15 0zM1034.92 -29.71 a7.5 7.5 0 1 0 15 0 a7.5 7.5 0 1 0 -15 0zM1099.87 7.79 a7.5 7.5 0 1 0 15 0 a7.5 7.5 0 1 0 -15 0zM1099.87 82.79 a7.5 7.5 0 1 0 15 0 a7.5 7.5 0 1 0 -15 0zM1034.92 120.29 a7.5 7.5 0 1 0 15 0 a7.5 7.5 0 1 0 -15 0zM969.97 82.79 a7.5 7.5 0 1 0 15 0 a7.5 7.5 0 1 0 -15 0zM969.97 7.79 a7.5 7.5 0 1 0 15 0 a7.5 7.5 0 1 0 -15 0zM1099.87 307.79 a7.5 7.5 0 1 0 15 0 a7.5 7.5 0 1 0 -15 0zM1164.83 345.29 a7.5 7.5 0 1 0 15 0 a7.5 7.5 0 1 0 -15 0zM1164.83 420.29 a7.5 7.5 0 1 0 15 0 a7.5 7.5 0 1 0 -15 0zM1099.87 457.79 a7.5 7.5 0 1 0 15 0 a7.5 7.5 0 1 0 -15 0zM1099.87 532.79 a7.5 7.5 0 1 0 15 0 a7.5 7.5 0 1 0 -15 0zM1164.83 570.29 a7.5 7.5 0 1 0 15 0 a7.5 7.5 0 1 0 -15 0zM1164.83 645.29 a7.5 7.5 0 1 0 15 0 a7.5 7.5 0 1 0 -15 0zM1099.87 682.79 a7.5 7.5 0 1 0 15 0 a7.5 7.5 0 1 0 -15 0zM1034.92 645.29 a7.5 7.5 0 1 0 15 0 a7.5 7.5 0 1 0 -15 0zM1034.92 570.29 a7.5 7.5 0 1 0 15 0 a7.5 7.5 0 1 0 -15 0zM1099.87 757.79 a7.5 7.5 0 1 0 15 0 a7.5 7.5 0 1 0 -15 0zM1034.92 795.29 a7.5 7.5 0 1 0 15 0 a7.5 7.5 0 1 0 -15 0zM1229.78 82.79 a7.5 7.5 0 1 0 15 0 a7.5 7.5 0 1 0 -15 0zM1294.73 120.29 a7.5 7.5 0 1 0 15 0 a7.5 7.5 0 1 0 -15 0zM1294.73 195.29 a7.5 7.5 0 1 0 15 0 a7.5 7.5 0 1 0 -15 0zM1229.78 232.79 a7.5 7.5 0 1 0 15 0 a7.5 7.5 0 1 0 -15 0zM1164.83 195.29 a7.5 7.5 0 1 0 15 0 a7.5 7.5 0 1 0 -15 0zM1164.83 120.29 a7.5 7.5 0 1 0 15 0 a7.5 7.5 0 1 0 -15 0zM1229.78 307.79 a7.5 7.5 0 1 0 15 0 a7.5 7.5 0 1 0 -15 0zM1099.87 232.79 a7.5 7.5 0 1 0 15 0 a7.5 7.5 0 1 0 -15 0zM1229.78 682.79 a7.5 7.5 0 1 0 15 0 a7.5 7.5 0 1 0 -15 0zM1229.78 757.79 a7.5 7.5 0 1 0 15 0 a7.5 7.5 0 1 0 -15 0zM1164.83 795.29 a7.5 7.5 0 1 0 15 0 a7.5 7.5 0 1 0 -15 0zM1294.73 795.29 a7.5 7.5 0 1 0 15 0 a7.5 7.5 0 1 0 -15 0zM1294.73 870.29 a7.5 7.5 0 1 0 15 0 a7.5 7.5 0 1 0 -15 0zM1229.78 907.79 a7.5 7.5 0 1 0 15 0 a7.5 7.5 0 1 0 -15 0zM1164.83 870.29 a7.5 7.5 0 1 0 15 0 a7.5 7.5 0 1 0 -15 0zM1229.78 982.79 a7.5 7.5 0 1 0 15 0 a7.5 7.5 0 1 0 -15 0zM1164.83 1020.29 a7.5 7.5 0 1 0 15 0 a7.5 7.5 0 1 0 -15 0zM1099.87 982.79 a7.5 7.5 0 1 0 15 0 a7.5 7.5 0 1 0 -15 0zM1099.87 907.79 a7.5 7.5 0 1 0 15 0 a7.5 7.5 0 1 0 -15 0z" fill="#03305d"></path><path d="M27.23 -62.51L85.26 -29.01L85.26 37.99L27.23 71.49L-30.8 37.99L-30.8 -29.01zM85.26 37.99L143.28 71.49L143.28 138.49L85.26 171.99L27.23 138.49L27.23 71.49zM85.26 439.99L143.28 473.49L143.28 540.49L85.26 573.99L27.23 540.49L27.23 473.49zM85.26 841.99L143.28 875.49L143.28 942.49L85.26 975.99L27.23 942.49L27.23 875.49zM143.28 138.49L201.31 171.99L201.31 238.99L143.28 272.49L85.26 238.99L85.26 171.99zM143.28 741.49L201.31 774.99L201.31 841.99L143.28 875.49L85.26 841.99L85.26 774.99zM317.36 37.99L375.38 71.49L375.38 138.49L317.36 171.99L259.33 138.49L259.33 71.49zM259.33 138.49L317.36 171.99L317.36 238.99L259.33 272.49L201.31 238.99L201.31 171.99zM259.33 339.49L317.36 372.99L317.36 439.99L259.33 473.49L201.31 439.99L201.31 372.99zM317.36 640.99L375.38 674.49L375.38 741.49L317.36 774.99L259.33 741.49L259.33 674.49zM259.33 741.49L317.36 774.99L317.36 841.99L259.33 875.49L201.31 841.99L201.31 774.99zM317.36 841.99L375.38 875.49L375.38 942.49L317.36 975.99L259.33 942.49L259.33 875.49zM375.38 -62.51L433.41 -29.01L433.41 37.99L375.38 71.49L317.36 37.99L317.36 -29.01zM375.38 339.49L433.41 372.99L433.41 439.99L375.38 473.49L317.36 439.99L317.36 372.99zM433.41 640.99L491.43 674.49L491.43 741.49L433.41 774.99L375.38 741.49L375.38 674.49zM433.41 841.99L491.43 875.49L491.43 942.49L433.41 975.99L375.38 942.49L375.38 875.49zM549.46 37.99L607.48 71.49L607.48 138.49L549.46 171.99L491.43 138.49L491.43 71.49zM549.46 238.99L607.48 272.49L607.48 339.49L549.46 372.99L491.43 339.49L491.43 272.49zM549.46 841.99L607.48 875.49L607.48 942.49L549.46 975.99L491.43 942.49L491.43 875.49zM665.51 37.99L723.53 71.49L723.53 138.49L665.51 171.99L607.48 138.49L607.48 71.49zM607.48 138.49L665.51 171.99L665.51 238.99L607.48 272.49L549.46 238.99L549.46 171.99zM665.51 238.99L723.53 272.49L723.53 339.49L665.51 372.99L607.48 339.49L607.48 272.49zM607.48 540.49L665.51 573.99L665.51 640.99L607.48 674.49L549.46 640.99L549.46 573.99zM723.53 -62.51L781.56 -29.01L781.56 37.99L723.53 71.49L665.51 37.99L665.51 -29.01zM723.53 138.49L781.56 171.99L781.56 238.99L723.53 272.49L665.51 238.99L665.51 171.99zM781.56 238.99L839.58 272.49L839.58 339.49L781.56 372.99L723.53 339.49L723.53 272.49zM723.53 339.49L781.56 372.99L781.56 439.99L723.53 473.49L665.51 439.99L665.51 372.99zM723.53 741.49L781.56 774.99L781.56 841.99L723.53 875.49L665.51 841.99L665.51 774.99zM781.56 841.99L839.58 875.49L839.58 942.49L781.56 975.99L723.53 942.49L723.53 875.49zM839.58 -62.51L897.61 -29.01L897.61 37.99L839.58 71.49L781.56 37.99L781.56 -29.01zM897.61 37.99L955.64 71.49L955.64 138.49L897.61 171.99L839.58 138.49L839.58 71.49zM839.58 138.49L897.61 171.99L897.61 238.99L839.58 272.49L781.56 238.99L781.56 171.99zM839.58 741.49L897.61 774.99L897.61 841.99L839.58 875.49L781.56 841.99L781.56 774.99zM897.61 841.99L955.64 875.49L955.64 942.49L897.61 975.99L839.58 942.49L839.58 875.49zM955.64 540.49L1013.66 573.99L1013.66 640.99L955.64 674.49L897.61 640.99L897.61 573.99zM1013.66 640.99L1071.69 674.49L1071.69 741.49L1013.66 774.99L955.64 741.49L955.64 674.49zM1013.66 841.99L1071.69 875.49L1071.69 942.49L1013.66 975.99L955.64 942.49L955.64 875.49zM1129.71 37.99L1187.74 71.49L1187.74 138.49L1129.71 171.99L1071.69 138.49L1071.69 71.49zM1071.69 138.49L1129.71 171.99L1129.71 238.99L1071.69 272.49L1013.66 238.99L1013.66 171.99zM1129.71 238.99L1187.74 272.49L1187.74 339.49L1129.71 372.99L1071.69 339.49L1071.69 272.49zM1129.71 439.99L1187.74 473.49L1187.74 540.49L1129.71 573.99L1071.69 540.49L1071.69 473.49zM1071.69 540.49L1129.71 573.99L1129.71 640.99L1071.69 674.49L1013.66 640.99L1013.66 573.99zM1071.69 741.49L1129.71 774.99L1129.71 841.99L1071.69 875.49L1013.66 841.99L1013.66 774.99zM1129.71 841.99L1187.74 875.49L1187.74 942.49L1129.71 975.99L1071.69 942.49L1071.69 875.49zM1245.76 439.99L1303.79 473.49L1303.79 540.49L1245.76 573.99L1187.74 540.49L1187.74 473.49zM1245.76 640.99L1303.79 674.49L1303.79 741.49L1245.76 774.99L1187.74 741.49L1187.74 674.49zM1187.74 741.49L1245.76 774.99L1245.76 841.99L1187.74 875.49L1129.71 841.99L1129.71 774.99zM1361.81 37.99L1419.84 71.49L1419.84 138.49L1361.81 171.99L1303.79 138.49L1303.79 71.49zM1303.79 138.49L1361.81 171.99L1361.81 238.99L1303.79 272.49L1245.76 238.99L1245.76 171.99zM1361.81 238.99L1419.84 272.49L1419.84 339.49L1361.81 372.99L1303.79 339.49L1303.79 272.49zM1361.81 640.99L1419.84 674.49L1419.84 741.49L1361.81 774.99L1303.79 741.49L1303.79 674.49zM1303.79 741.49L1361.81 774.99L1361.81 841.99L1303.79 875.49L1245.76 841.99L1245.76 774.99z" stroke="rgba(6, 80, 156, 0.93)" stroke-width="2"></path></g><defs><mask id="SvgjsMask1046"><rect width="1280" height="900" fill="#ffffff"></rect></mask></defs></svg>