<svg width="186" height="191" viewBox="0 0 186 191" fill="none" xmlns="http://www.w3.org/2000/svg">
<path d="M0 0H185.27V190.146H0V0Z" fill="#F7DF1E"/>
<path d="M48.7148 158.899L62.8929 150.093C65.6282 155.07 68.1164 159.281 74.0847 159.281C79.8057 159.281 83.4126 156.985 83.4126 148.051V87.2947H100.823V148.303C100.823 166.811 90.2529 175.235 74.8311 175.235C60.9032 175.235 52.8184 167.832 48.7145 158.898" fill="black"/>
<path d="M110.28 156.985L124.456 148.561C128.188 154.816 133.038 159.41 141.619 159.41C148.833 159.41 153.433 155.709 153.433 150.603C153.433 144.476 148.708 142.306 140.748 138.734L136.397 136.818C123.835 131.33 115.502 124.438 115.502 109.887C115.502 96.4851 125.451 86.2737 140.997 86.2737C152.066 86.2737 160.025 90.2308 165.745 100.57L152.19 109.504C149.205 104.016 145.972 101.846 140.998 101.846C135.899 101.846 132.665 105.165 132.665 109.504C132.665 114.865 135.899 117.035 143.36 120.354L147.712 122.268C162.512 128.778 170.844 135.415 170.844 150.348C170.844 166.431 158.533 175.237 141.992 175.237C125.825 175.237 115.378 167.324 110.28 156.985" fill="black"/>
</svg>
