<svg width="186" height="180" viewBox="0 0 186 180" fill="none" xmlns="http://www.w3.org/2000/svg">
<path d="M170.653 139.147C160.573 138.898 152.76 139.896 146.208 142.638C144.318 143.385 141.293 143.386 141.041 145.754C142.05 146.752 142.175 148.372 143.057 149.743C144.571 152.235 147.216 155.602 149.61 157.347C152.256 159.341 154.903 161.335 157.674 163.081C162.589 166.073 168.133 167.817 172.921 170.809C175.695 172.553 178.465 174.798 181.238 176.668C182.624 177.664 183.506 179.285 185.27 179.909V179.535C184.388 178.413 184.136 176.792 183.254 175.546C181.995 174.299 180.734 173.177 179.474 171.931C175.819 167.07 171.283 162.831 166.369 159.341C162.337 156.599 153.516 152.859 151.878 148.247C151.878 148.247 151.752 148.123 151.626 147.998C154.398 147.749 157.674 146.752 160.321 146.003C164.605 144.881 168.511 145.131 172.921 144.009C174.937 143.51 176.954 142.887 178.97 142.264V141.142C176.702 138.898 175.064 135.907 172.669 133.788C166.243 128.302 159.186 122.943 151.878 118.456C147.971 115.963 142.931 114.341 138.773 112.223C137.262 111.474 134.741 111.101 133.859 109.854C131.59 107.112 130.33 103.497 128.692 100.256C125.039 93.3994 121.51 85.7967 118.36 78.5671C116.092 73.7054 114.706 68.8436 111.934 64.3565C98.955 43.1658 84.842 30.3268 63.1686 17.7365C58.5062 15.1192 52.9623 13.997 47.0398 12.6261C43.8904 12.501 40.7395 12.2523 37.5892 12.1272C35.5734 11.2545 33.5568 8.88659 31.7924 7.76441C24.6115 3.27648 6.08739 -6.44541 0.794935 6.39356C-2.60743 14.4959 5.83523 22.4731 8.73321 26.5872C10.8763 29.4541 13.6478 32.6947 15.1601 35.9361C16.0423 38.0538 16.2936 40.2989 17.1759 42.5425C19.1925 48.0259 21.0818 54.1349 23.7284 59.2461C25.115 61.8635 26.6264 64.606 28.3908 66.9739C29.3987 68.3447 31.1624 68.9688 31.541 71.2124C29.7774 73.7054 29.6509 77.4449 28.6422 80.5612C24.1063 94.6467 25.8707 112.098 32.2967 122.444C34.3125 125.559 39.1014 132.417 45.5275 129.799C51.1979 127.555 49.9378 120.45 51.5757 114.217C51.9544 112.72 51.7022 111.724 52.4579 110.727C52.4586 110.851 52.4579 110.976 52.4579 110.976C54.2224 114.467 55.986 117.832 57.6239 121.322C61.5306 127.43 68.3346 133.788 74.0049 138.026C77.0302 140.269 79.4238 144.133 83.204 145.505V145.131H82.9519C82.1953 144.008 81.0617 143.51 80.0538 142.638C77.7859 140.394 75.2649 137.651 73.5013 135.158C68.2096 128.177 63.5464 120.45 59.3883 112.472C57.3725 108.608 55.6081 104.369 53.9702 100.505C53.2137 99.0087 53.2137 96.7659 51.9536 96.0183C50.0635 98.76 47.292 101.129 45.9054 104.494C43.5125 109.854 43.2596 116.461 42.3773 123.317C41.8738 123.442 42.1252 123.317 41.873 123.566C37.8414 122.568 36.4548 118.456 34.9426 114.965C31.1623 106.115 30.5323 91.9042 33.809 81.6834C34.6912 79.0653 38.4714 70.8386 36.9592 68.3455C36.2034 65.9768 33.6825 64.606 32.2967 62.7362C30.6588 60.3675 28.8944 57.3763 27.7608 54.7582C24.7363 47.778 23.224 40.0495 19.9482 33.0685C18.4359 29.8271 15.7901 26.4621 13.6478 23.471C11.2542 20.1052 8.60752 17.7365 6.71738 13.7475C6.08814 12.3767 5.20513 10.1331 6.21304 8.63711C6.46521 7.64006 6.96876 7.26626 7.97746 7.0168C9.61539 5.64516 14.2778 7.39059 15.9157 8.13819C20.5782 10.0072 24.4841 11.7534 28.3908 14.3708C30.1544 15.6173 32.0445 17.986 34.3125 18.6092H36.9591C40.9915 19.4812 45.5275 18.8587 49.3077 19.9801C55.9867 22.0985 62.0341 25.2156 67.4531 28.5814C83.9605 38.9273 97.5683 53.6368 106.768 71.2124C108.28 74.0784 108.909 76.6973 110.296 79.6885C112.942 85.7968 116.218 92.0293 118.864 98.0125C121.51 103.87 124.03 109.854 127.81 114.716C129.701 117.333 137.261 118.704 140.663 120.076C143.183 121.197 147.09 122.195 149.358 123.566C153.642 126.183 157.926 129.175 161.959 132.042C163.975 133.537 170.275 136.654 170.653 139.147L170.653 139.147Z" fill="#00546B"/>
</svg>
