<svg width="186" height="174" viewBox="0 0 186 174" fill="none" xmlns="http://www.w3.org/2000/svg">
<path d="M0 86.6457C0 101.254 13.6624 114.891 35.2023 122.578C30.901 145.187 34.4315 163.41 46.2235 170.51C58.3446 177.808 76.4019 172.757 93.5408 157.115C110.247 172.125 127.132 178.032 138.913 170.912C151.022 163.592 154.706 144.134 150.286 120.819C172.72 113.075 185.27 101.446 185.27 86.6457C185.27 72.3762 171.582 60.0311 150.333 52.3934C155.091 28.1152 151.059 10.3348 138.779 2.94095C126.94 -4.18718 109.859 2.02571 92.9067 17.4292C75.2708 1.07961 58.3585 -3.91212 46.0902 3.50327C34.2623 10.6517 30.8871 29.2055 35.2023 52.2329C14.3897 59.8093 0 72.4332 0 86.6457Z" fill="white"/>
<path d="M145.83 59.9776C144.123 59.3642 142.355 58.7838 140.534 58.2349C140.833 56.9595 141.108 55.7006 141.352 54.4631C145.361 34.1429 142.74 17.7728 133.788 12.383C125.205 7.21499 111.167 12.6035 96.9895 25.4855C95.6262 26.7243 94.2591 28.0358 92.8925 29.4103C91.982 28.5009 91.0729 27.6221 90.1662 26.7815C75.3079 13.0071 60.4147 7.20245 51.4719 12.6078C42.8966 17.7908 40.3571 33.1803 43.9661 52.4379C44.3147 54.298 44.722 56.1975 45.1827 58.1288C43.0749 58.7535 41.0401 59.4196 39.093 60.1281C21.6733 66.4691 10.5482 76.407 10.5482 86.7153C10.5482 97.3618 22.491 108.04 40.635 114.515C42.0669 115.026 43.5526 115.509 45.0837 115.968C44.5867 118.057 44.1545 120.104 43.7916 122.1C40.3503 141.024 43.0377 156.05 51.5902 161.2C60.4241 166.519 75.2499 161.052 89.6865 147.876C90.8275 146.834 91.9726 145.73 93.1198 144.572C94.6067 146.067 96.0913 147.482 97.5679 148.809C111.551 161.373 125.362 166.446 133.907 161.281C142.732 155.947 145.6 139.806 141.877 120.167C141.592 118.668 141.261 117.135 140.89 115.576C141.931 115.254 142.953 114.923 143.95 114.578C162.812 108.053 175.085 97.504 175.085 86.7153C175.085 76.3697 163.601 66.3648 145.83 59.9776Z" fill="#18BDE9"/>
<path d="M141.739 107.612C140.839 107.923 139.916 108.224 138.976 108.515C136.893 101.632 134.083 94.3132 130.644 86.7514C133.926 79.3698 136.627 72.1445 138.651 65.3062C140.334 65.8148 141.968 66.3511 143.542 66.9171C158.768 72.3897 168.056 80.481 168.056 86.7157C168.056 93.3567 158.025 101.978 141.739 107.612ZM134.981 121.593C136.628 130.277 136.863 138.128 135.772 144.266C134.792 149.781 132.822 153.458 130.385 154.931C125.2 158.064 114.111 153.991 102.152 143.246C100.781 142.015 99.4003 140.7 98.015 139.308C102.651 134.014 107.285 127.859 111.807 121.024C119.761 120.287 127.276 119.082 134.091 117.437C134.426 118.851 134.725 120.237 134.981 121.593ZM66.6425 154.389C61.5764 156.257 57.5415 156.311 55.1024 154.842C49.9124 151.717 47.7548 139.653 50.6979 123.469C51.035 121.616 51.4362 119.712 51.8987 117.766C58.6389 119.322 66.0986 120.442 74.0718 121.117C78.6245 127.805 83.3919 133.953 88.1961 139.336C87.1465 140.394 86.1009 141.401 85.0612 142.35C78.6775 148.177 72.2803 152.31 66.6425 154.389ZM42.9084 107.571C34.8854 104.708 28.2598 100.987 23.7182 96.9267C19.6373 93.2778 17.577 89.6552 17.577 86.7157C17.577 80.4603 26.5093 72.4814 41.4068 67.0584C43.2144 66.4003 45.1067 65.7802 47.0704 65.1977C49.1293 72.1903 51.8302 79.5013 55.0895 86.8942C51.788 94.3969 49.0488 101.824 46.9697 108.899C45.5697 108.479 44.2134 108.037 42.9084 107.571ZM50.8643 51.0289C47.7721 34.5294 49.8257 22.0828 54.9935 18.9596C60.498 15.6323 72.6701 20.3763 85.4991 32.2697C86.3191 33.0299 87.1424 33.8255 87.968 34.6487C83.1874 40.0082 78.4637 46.1098 73.9514 52.7587C66.2131 53.5076 58.8058 54.7105 51.9953 56.3214C51.5672 54.5231 51.1879 52.7563 50.8643 51.0289ZM121.838 69.3267C120.21 66.3905 118.538 63.5238 116.834 60.7354C122.084 61.4283 127.114 62.3481 131.837 63.4737C130.419 68.2188 128.652 73.1802 126.571 78.2663C125.079 75.3078 123.5 72.3249 121.838 69.3267ZM92.895 39.8935C96.1371 43.5608 99.3839 47.6552 102.577 52.0976C99.3593 51.9389 96.1014 51.8564 92.8165 51.8564C89.5627 51.8564 86.3288 51.9371 83.1306 52.093C86.3273 47.6919 89.6022 43.603 92.895 39.8935ZM63.7668 69.3774C62.1404 72.3218 60.5911 75.2885 59.1221 78.2608C57.0752 73.1924 55.3241 68.2084 53.8937 63.396C58.5882 62.2992 63.5943 61.4023 68.8106 60.7225C67.0827 63.5367 65.3975 66.4245 63.7668 69.3768V69.3774ZM68.9609 113.232C63.5714 112.605 58.4901 111.754 53.7968 110.687C55.25 105.789 57.0398 100.699 59.13 95.521C60.6029 98.4911 62.1583 101.459 63.7946 104.41H63.7949C65.4616 107.416 67.1884 110.361 68.9609 113.232ZM93.0894 134.055C89.758 130.302 86.4351 126.151 83.1898 121.686C86.3402 121.815 89.5521 121.881 92.8165 121.881C96.1702 121.881 99.4855 121.802 102.749 121.65C99.5447 126.196 96.3096 130.354 93.0894 134.055ZM126.638 95.2571C128.837 100.491 130.691 105.554 132.163 110.369C127.393 111.506 122.242 112.421 116.815 113.101C118.523 110.275 120.209 107.359 121.866 104.359C123.542 101.325 125.134 98.2856 126.638 95.2571ZM115.777 100.693C113.205 105.349 110.565 109.794 107.884 113.99C103.002 114.354 97.9576 114.542 92.8165 114.542C87.6962 114.542 82.7156 114.376 77.9195 114.051C75.1308 109.8 72.4329 105.342 69.8773 100.733H69.8778C67.329 96.1365 64.9831 91.5012 62.8574 86.8918C64.9825 82.2717 67.3222 77.6311 69.8565 73.0429L69.8559 73.0438C72.3968 68.4433 75.0711 64.007 77.834 59.7829C82.7273 59.3967 87.7451 59.1952 92.8162 59.1952H92.8165C97.9104 59.1952 102.935 59.3982 107.827 59.7878C110.547 63.981 113.203 68.4029 115.754 73.004C118.334 77.6568 120.704 82.2665 122.847 86.7875C120.711 91.3862 118.346 96.0424 115.777 100.693ZM130.277 18.7412C135.787 22.0587 137.93 35.4379 134.468 52.9823C134.247 54.1017 133.998 55.242 133.728 56.3975C126.902 54.753 119.49 53.5293 111.729 52.7691C107.208 46.0471 102.523 39.936 97.8199 34.6453C99.0843 33.3754 100.347 32.1645 101.604 31.0218C113.751 19.9846 125.105 15.6268 130.277 18.7412Z" fill="white"/>
<path d="M92.8189 71.3756C100.933 71.3756 107.511 78.2435 107.511 86.7158C107.511 95.1879 100.933 102.056 92.8189 102.056C84.7045 102.056 78.1263 95.1879 78.1263 86.7158C78.1263 78.2435 84.7045 71.3756 92.8189 71.3756Z" fill="#18BDE9"/>
</svg>
